<?xml version="1.0" standalone="yes"?>
<svg version="1.1" xmlns="http://www.w3.org/2000/svg" xmlns:xlink="http://www.w3.org/1999/xlink" xmlns:ev="http://www.w3.org/2001/xml-events" width="350" height="350">
<path style="fill:#ffffff; stroke:none;" d="M0 0L0 350L350 350L350 0L0 0z"/>
<path style="fill:#000000; stroke:none;" d="M10 10L10 80L80 80L80 10L10 10M90 10L90 30L100 30L100 40L110 40L110 30L100 30L100 20L120 20L120 30L130 30L130 10L90 10M140 10L140 20L160 20L160 30L170 30L170 10L140 10M190 10L190 30L180 30L180 40L160 40L160 60L140 60L140 40L150 40L150 30L140 30L140 40L120 40L120 60L100 60L100 50L90 50L90 100L110 100L110 80L120 80L120 60L130 60L130 80L140 80L140 90L120 90L120 100L130 100L130 120L120 120L120 110L100 110L100 120L110 120L110 130L90 130L90 110L70 110L70 120L80 120L80 130L70 130L70 140L80 140L80 130L90 130L90 140L100 140L100 150L60 150L60 140L50 140L50 130L30 130L30 140L20 140L20 130L10 130L10 160L40 160L40 150L30 150L30 140L50 140L50 150L60 150L60 160L50 160L50 170L60 170L60 180L50 180L50 190L60 190L60 180L80 180L80 190L70 190L70 200L80 200L80 210L60 210L60 200L50 200L50 210L60 210L60 230L50 230L50 220L40 220L40 170L30 170L30 200L20 200L20 210L10 210L10 220L30 220L30 230L10 230L10 240L30 240L30 250L10 250L10 260L30 260L30 250L40 250L40 260L50 260L50 240L80 240L80 250L60 250L60 260L80 260L80 250L100 250L100 240L130 240L130 230L110 230L110 220L90 220L90 210L110 210L110 190L120 190L120 180L130 180L130 200L120 200L120 210L140 210L140 230L160 230L160 240L170 240L170 260L160 260L160 270L140 270L140 260L150 260L150 240L140 240L140 250L120 250L120 260L130 260L130 280L120 280L120 270L100 270L100 260L90 260L90 270L100 270L100 280L90 280L90 290L100 290L100 300L110 300L110 290L140 290L140 310L160 310L160 320L170 320L170 330L160 330L160 340L170 340L170 330L180 330L180 320L200 320L200 340L220 340L220 330L210 330L210 320L220 320L220 310L230 310L230 300L220 300L220 290L210 290L210 300L200 300L200 310L190 310L190 300L180 300L180 280L170 280L170 270L190 270L190 260L200 260L200 280L210 280L210 270L220 270L220 280L230 280L230 290L240 290L240 300L260 300L260 310L250 310L250 340L260 340L260 330L270 330L270 340L280 340L280 330L270 330L270 300L290 300L290 330L300 330L300 340L310 340L310 330L300 330L300 310L310 310L310 300L300 300L300 290L310 290L310 280L300 280L300 270L310 270L310 260L300 260L300 250L310 250L310 240L300 240L300 250L280 250L280 240L270 240L270 250L260 250L260 240L250 240L250 220L270 220L270 230L290 230L290 220L280 220L280 210L290 210L290 190L280 190L280 180L290 180L290 170L300 170L300 190L330 190L330 200L340 200L340 170L330 170L330 180L310 180L310 170L300 170L300 160L290 160L290 130L300 130L300 150L330 150L330 160L340 160L340 130L320 130L320 140L310 140L310 130L300 130L300 120L310 120L310 110L320 110L320 120L340 120L340 90L320 90L320 100L310 100L310 110L300 110L300 120L290 120L290 100L300 100L300 90L260 90L260 100L250 100L250 90L240 90L240 120L270 120L270 150L260 150L260 130L250 130L250 140L240 140L240 150L220 150L220 140L210 140L210 110L220 110L220 120L230 120L230 100L210 100L210 90L200 90L200 60L210 60L210 50L220 50L220 60L230 60L230 50L250 50L250 60L260 60L260 50L250 50L250 40L230 40L230 10L220 10L220 20L210 20L210 30L220 30L220 40L190 40L190 30L200 30L200 10L190 10M270 10L270 80L340 80L340 10L270 10z"/>
<path style="fill:#ffffff; stroke:none;" d="M20 20L20 70L70 70L70 20L20 20z"/>
<path style="fill:#000000; stroke:none;" d="M250 20L250 30L260 30L260 20L250 20z"/>
<path style="fill:#ffffff; stroke:none;" d="M280 20L280 70L330 70L330 20L280 20z"/>
<path style="fill:#000000; stroke:none;" d="M30 30L30 60L60 60L60 30L30 30M290 30L290 60L320 60L320 30L290 30z"/>
<path style="fill:#ffffff; stroke:none;" d="M180 50L180 60L190 60L190 50L180 50M160 60L160 80L150 80L150 70L140 70L140 80L150 80L150 100L140 100L140 110L160 110L160 120L170 120L170 100L160 100L160 90L180 90L180 130L160 130L160 150L140 150L140 130L150 130L150 120L140 120L140 130L120 130L120 150L110 150L110 160L120 160L120 170L110 170L110 180L120 180L120 170L140 170L140 160L150 160L150 180L140 180L140 190L160 190L160 200L170 200L170 180L160 180L160 170L180 170L180 180L190 180L190 200L180 200L180 220L170 220L170 210L160 210L160 230L190 230L190 240L180 240L180 260L190 260L190 240L200 240L200 260L210 260L210 240L200 240L200 210L210 210L210 200L220 200L220 220L230 220L230 230L220 230L220 260L230 260L230 280L250 280L250 270L240 270L240 250L250 250L250 240L240 240L240 220L250 220L250 210L240 210L240 190L230 190L230 180L240 180L240 170L250 170L250 180L260 180L260 190L250 190L250 200L280 200L280 190L270 190L270 170L280 170L280 160L270 160L270 170L260 170L260 160L240 160L240 170L230 170L230 160L220 160L220 150L210 150L210 160L220 160L220 180L210 180L210 170L190 170L190 160L180 160L180 140L190 140L190 150L200 150L200 120L190 120L190 110L200 110L200 90L190 90L190 70L180 70L180 80L170 80L170 60L160 60M100 70L100 80L110 80L110 70L100 70z"/>
<path style="fill:#000000; stroke:none;" d="M210 70L210 80L220 80L220 70L210 70M230 70L230 80L240 80L240 70L230 70M250 70L250 80L260 80L260 70L250 70M10 90L10 100L30 100L30 120L60 120L60 110L50 110L50 100L40 100L40 90L10 90M60 90L60 100L80 100L80 90L60 90M10 110L10 120L20 120L20 110L10 110M120 150L120 160L130 160L130 150L120 150M160 150L160 160L170 160L170 150L160 150z"/>
<path style="fill:#ffffff; stroke:none;" d="M70 160L70 170L80 170L80 160L70 160M90 170L90 190L80 190L80 200L90 200L90 190L100 190L100 170L90 170z"/>
<path style="fill:#000000; stroke:none;" d="M10 180L10 190L20 190L20 180L10 180M200 180L200 200L210 200L210 180L200 180M220 190L220 200L230 200L230 190L220 190z"/>
<path style="fill:#ffffff; stroke:none;" d="M140 200L140 210L150 210L150 200L140 200z"/>
<path style="fill:#000000; stroke:none;" d="M300 200L300 210L310 210L310 200L300 200M230 210L230 220L240 220L240 210L230 210M330 210L330 220L320 220L320 230L330 230L330 240L340 240L340 210L330 210z"/>
<path style="fill:#ffffff; stroke:none;" d="M70 220L70 230L90 230L90 240L100 240L100 230L90 230L90 220L70 220z"/>
<path style="fill:#000000; stroke:none;" d="M300 220L300 230L310 230L310 220L300 220z"/>
<path style="fill:#ffffff; stroke:none;" d="M40 230L40 240L50 240L50 230L40 230z"/>
<path style="fill:#000000; stroke:none;" d="M230 240L230 250L240 250L240 240L230 240M320 250L320 260L330 260L330 300L320 300L320 320L340 320L340 260L330 260L330 250L320 250z"/>
<path style="fill:#ffffff; stroke:none;" d="M260 260L260 290L290 290L290 260L260 260z"/>
<path style="fill:#000000; stroke:none;" d="M10 270L10 340L80 340L80 270L10 270M270 270L270 280L280 280L280 270L270 270z"/>
<path style="fill:#ffffff; stroke:none;" d="M20 280L20 330L70 330L70 280L20 280M100 280L100 290L110 290L110 280L100 280M140 280L140 290L150 290L150 280L140 280M160 280L160 300L170 300L170 280L160 280z"/>
<path style="fill:#000000; stroke:none;" d="M30 290L30 320L60 320L60 290L30 290M90 310L90 340L100 340L100 330L110 330L110 310L90 310M120 310L120 320L130 320L130 310L120 310M140 320L140 330L120 330L120 340L150 340L150 320L140 320M230 320L230 330L240 330L240 320L230 320M330 330L330 340L340 340L340 330L330 330z"/>
</svg>
